<mxfile host="65bd71144e">
    <diagram id="G8ZCOdjm7SQ6kWsWZFQT" name="ページ1">
        <mxGraphModel dx="1851" dy="1910" grid="1" gridSize="10" guides="1" tooltips="1" connect="1" arrows="1" fold="1" page="1" pageScale="1" pageWidth="827" pageHeight="1169" math="0" shadow="0">
            <root>
                <mxCell id="0"/>
                <mxCell id="1" parent="0"/>
                <mxCell id="193" value="" style="edgeStyle=none;html=1;" edge="1" parent="1" source="188" target="190">
                    <mxGeometry relative="1" as="geometry"/>
                </mxCell>
                <mxCell id="32" value="" style="edgeStyle=none;html=1;endArrow=classic;endFill=1;strokeWidth=1;" parent="1" source="59" target="64" edge="1">
                    <mxGeometry relative="1" as="geometry">
                        <mxPoint x="440" y="600" as="sourcePoint"/>
                    </mxGeometry>
                </mxCell>
                <mxCell id="33" value="" style="fillColor=none;strokeColor=#5A6C86;dashed=1;verticalAlign=top;fontStyle=0;fontColor=#5A6C86;whiteSpace=wrap;html=1;container=1;collapsible=0;resizable=1;dashPattern=1 2;strokeWidth=2;" parent="1" vertex="1">
                    <mxGeometry x="30" y="240" width="340" height="210" as="geometry">
                        <mxRectangle x="580" y="370" width="120" height="30" as="alternateBounds"/>
                    </mxGeometry>
                </mxCell>
                <mxCell id="38" value="" style="fillColor=none;strokeColor=#5A6C86;dashed=1;verticalAlign=top;fontStyle=0;fontColor=#5A6C86;whiteSpace=wrap;html=1;container=1;collapsible=0;dashPattern=1 2;strokeWidth=2;rounded=1;arcSize=5;" parent="33" vertex="1">
                    <mxGeometry x="179.9991156639849" y="40" width="151.73251685612846" height="148.91" as="geometry">
                        <mxRectangle x="580" y="370" width="120" height="30" as="alternateBounds"/>
                    </mxGeometry>
                </mxCell>
                <mxCell id="40" value="snet-vm-2&lt;div&gt;192.168.12.0/25&lt;/div&gt;" style="image;aspect=fixed;html=1;points=[];align=left;fontSize=12;image=img/lib/azure2/networking/Subnet.svg;labelPosition=right;verticalLabelPosition=middle;verticalAlign=middle;imageBackground=default;" parent="38" vertex="1">
                    <mxGeometry x="9.996078479027242" y="-9.87990976645435" width="32.99889861995753" height="19.7598195329087" as="geometry"/>
                </mxCell>
                <mxCell id="41" value="vm-win-2" style="image;sketch=0;aspect=fixed;html=1;points=[];align=center;fontSize=12;image=img/lib/mscae/Virtual_Machine_2.svg;" parent="38" vertex="1">
                    <mxGeometry x="54.13" y="54.46" width="43.48" height="40" as="geometry"/>
                </mxCell>
                <mxCell id="47" value="" style="fillColor=none;strokeColor=#5A6C86;dashed=1;verticalAlign=top;fontStyle=0;fontColor=#5A6C86;whiteSpace=wrap;html=1;container=1;collapsible=0;resizable=1;dashPattern=1 2;strokeWidth=2;rounded=1;arcSize=5;" parent="33" vertex="1">
                    <mxGeometry x="10" y="38.91" width="150" height="150" as="geometry">
                        <mxRectangle x="580" y="370" width="120" height="30" as="alternateBounds"/>
                    </mxGeometry>
                </mxCell>
                <mxCell id="48" value="AzureBastionSubnet&lt;div&gt;192.168.12.128/27&lt;/div&gt;" style="image;aspect=fixed;html=1;points=[];align=left;fontSize=12;image=img/lib/azure2/networking/Subnet.svg;labelPosition=right;verticalLabelPosition=middle;verticalAlign=middle;imageBackground=default;" parent="47" vertex="1">
                    <mxGeometry x="10" y="-8.98" width="31.7" height="18.98" as="geometry"/>
                </mxCell>
                <mxCell id="53" value="bastion-host-2" style="image;aspect=fixed;html=1;points=[];align=center;fontSize=12;image=img/lib/azure2/networking/Bastions.svg;" parent="47" vertex="1">
                    <mxGeometry x="60.94698809182935" y="59.07181818181818" width="28.11497326203208" height="32.95989304812834" as="geometry"/>
                </mxCell>
                <mxCell id="13" value="vnet-bastion-2&lt;div&gt;192.168.12.0/24&lt;/div&gt;" style="image;aspect=fixed;html=1;points=[];align=left;fontSize=12;image=img/lib/azure2/networking/Virtual_Networks.svg;labelPosition=right;verticalLabelPosition=middle;verticalAlign=middle;labelBackgroundColor=default;textShadow=0;imageBackground=default;" parent="33" vertex="1">
                    <mxGeometry x="9.99745974754574" y="-10.003580131208992" width="35.32099343955014" height="21.087160262417996" as="geometry"/>
                </mxCell>
                <mxCell id="223" value="" style="edgeStyle=none;html=1;" edge="1" parent="33" source="53" target="41">
                    <mxGeometry relative="1" as="geometry">
                        <mxPoint x="-41" y="122.55000000000001" as="sourcePoint"/>
                        <mxPoint x="234.12911566398498" y="126.68907082776897" as="targetPoint"/>
                    </mxGeometry>
                </mxCell>
                <mxCell id="96" value="" style="edgeStyle=none;html=1;endArrow=none;endFill=0;strokeWidth=2;dashed=1;dashPattern=1 2;" parent="1" source="143" target="81" edge="1">
                    <mxGeometry relative="1" as="geometry">
                        <mxPoint x="1280" y="340" as="sourcePoint"/>
                    </mxGeometry>
                </mxCell>
                <mxCell id="97" value="peering" style="edgeLabel;html=1;align=center;verticalAlign=middle;resizable=0;points=[];" parent="96" vertex="1" connectable="0">
                    <mxGeometry x="0.1857" relative="1" as="geometry">
                        <mxPoint x="-11" as="offset"/>
                    </mxGeometry>
                </mxCell>
                <mxCell id="42" value="" style="fillColor=none;strokeColor=#5A6C86;dashed=1;verticalAlign=top;fontStyle=0;fontColor=#5A6C86;whiteSpace=wrap;html=1;container=1;collapsible=0;dashPattern=1 2;strokeWidth=2;" parent="1" vertex="1">
                    <mxGeometry x="520" y="240" width="340" height="380" as="geometry">
                        <mxRectangle x="580" y="370" width="120" height="30" as="alternateBounds"/>
                    </mxGeometry>
                </mxCell>
                <mxCell id="56" value="" style="fillColor=none;strokeColor=#5A6C86;dashed=1;verticalAlign=top;fontStyle=0;fontColor=#5A6C86;whiteSpace=wrap;html=1;container=1;collapsible=0;resizable=1;dashPattern=1 2;strokeWidth=2;rounded=1;arcSize=5;" parent="42" vertex="1">
                    <mxGeometry x="10" y="39.44999999999993" width="150" height="150" as="geometry">
                        <mxRectangle x="580" y="370" width="120" height="30" as="alternateBounds"/>
                    </mxGeometry>
                </mxCell>
                <mxCell id="58" value="GatewaySubnet&lt;div&gt;10.1.255.0/27&lt;/div&gt;" style="image;aspect=fixed;html=1;points=[];align=left;fontSize=12;image=img/lib/azure2/networking/Subnet.svg;labelPosition=right;verticalLabelPosition=middle;verticalAlign=middle;imageBackground=default;" parent="56" vertex="1">
                    <mxGeometry x="10" y="-8.98" width="31.7" height="18.98" as="geometry"/>
                </mxCell>
                <mxCell id="64" value="vpngw-pgadmin" style="image;sketch=0;aspect=fixed;html=1;points=[];align=center;fontSize=12;image=img/lib/mscae/VPN_Gateway.svg;" parent="56" vertex="1">
                    <mxGeometry x="60.28" y="58.64000000000003" width="29.44" height="32.71" as="geometry"/>
                </mxCell>
                <mxCell id="43" value="vnet-management&lt;div&gt;10.1.0.0/16&lt;/div&gt;" style="image;aspect=fixed;html=1;points=[];align=left;fontSize=12;image=img/lib/azure2/networking/Virtual_Networks.svg;labelPosition=right;verticalLabelPosition=middle;verticalAlign=middle;labelBackgroundColor=default;textShadow=0;imageBackground=default;" parent="42" vertex="1">
                    <mxGeometry x="10" y="-9.460000000000008" width="33.49" height="20" as="geometry"/>
                </mxCell>
                <mxCell id="65" value="" style="fillColor=none;strokeColor=#5A6C86;dashed=1;verticalAlign=top;fontStyle=0;fontColor=#5A6C86;whiteSpace=wrap;html=1;container=1;collapsible=0;resizable=1;dashPattern=1 2;strokeWidth=2;rounded=1;arcSize=5;" parent="42" vertex="1">
                    <mxGeometry x="180" y="39.44999999999993" width="150" height="150" as="geometry">
                        <mxRectangle x="580" y="370" width="120" height="30" as="alternateBounds"/>
                    </mxGeometry>
                </mxCell>
                <mxCell id="66" value="snet-pgadmin&lt;div&gt;10.1.1.0/24&lt;/div&gt;" style="image;aspect=fixed;html=1;points=[];align=left;fontSize=12;image=img/lib/azure2/networking/Subnet.svg;labelPosition=right;verticalLabelPosition=middle;verticalAlign=middle;imageBackground=default;" parent="65" vertex="1">
                    <mxGeometry x="10" y="-8.98" width="31.7" height="18.98" as="geometry"/>
                </mxCell>
                <mxCell id="76" value="" style="fillColor=none;strokeColor=#5A6C86;dashed=1;verticalAlign=top;fontStyle=0;fontColor=#5A6C86;whiteSpace=wrap;html=1;container=1;collapsible=0;resizable=1;dashPattern=1 2;strokeWidth=2;rounded=1;arcSize=5;" parent="65" vertex="1">
                    <mxGeometry x="10" y="31.090000000000032" width="130" height="110" as="geometry">
                        <mxRectangle x="580" y="370" width="120" height="30" as="alternateBounds"/>
                    </mxGeometry>
                </mxCell>
                <mxCell id="75" value="env-pgadmin" style="image;aspect=fixed;html=1;points=[];align=left;fontSize=12;image=img/lib/azure2/other/Container_App_Environments.svg;labelPosition=right;verticalLabelPosition=middle;verticalAlign=middle;" parent="76" vertex="1">
                    <mxGeometry x="8.52" y="-10" width="20" height="20" as="geometry"/>
                </mxCell>
                <mxCell id="79" value="pgadmin" style="image;aspect=fixed;html=1;points=[];align=center;fontSize=12;image=img/lib/azure2/other/Worker_Container_App.svg;" parent="76" vertex="1">
                    <mxGeometry x="40" y="30.75" width="39" height="37.84" as="geometry"/>
                </mxCell>
                <mxCell id="186" value="" style="fillColor=none;strokeColor=#5A6C86;dashed=1;verticalAlign=top;fontStyle=0;fontColor=#5A6C86;whiteSpace=wrap;html=1;container=1;collapsible=0;resizable=1;dashPattern=1 2;strokeWidth=2;rounded=1;arcSize=5;" vertex="1" parent="42">
                    <mxGeometry x="180" y="220" width="150" height="150" as="geometry">
                        <mxRectangle x="580" y="370" width="120" height="30" as="alternateBounds"/>
                    </mxGeometry>
                </mxCell>
                <mxCell id="187" value="snet-blob&lt;div&gt;10.1.2.0/24&lt;/div&gt;" style="image;aspect=fixed;html=1;points=[];align=left;fontSize=12;image=img/lib/azure2/networking/Subnet.svg;labelPosition=right;verticalLabelPosition=middle;verticalAlign=middle;imageBackground=default;" vertex="1" parent="186">
                    <mxGeometry x="10" y="-8.98" width="29.71875" height="17.79375" as="geometry"/>
                </mxCell>
                <mxCell id="188" value="private endpoint" style="image;aspect=fixed;html=1;points=[];align=center;fontSize=12;image=img/lib/azure2/networking/Private_Endpoint.svg;labelBackgroundColor=default;imageBackground=none;" vertex="1" parent="186">
                    <mxGeometry x="53.18000000000001" y="55" width="43.64" height="40" as="geometry"/>
                </mxCell>
                <mxCell id="55" value="" style="edgeStyle=none;html=1;" parent="1" source="54" target="53" edge="1">
                    <mxGeometry relative="1" as="geometry"/>
                </mxCell>
                <mxCell id="54" value="pip-bastion-2" style="image;aspect=fixed;html=1;points=[];align=center;fontSize=12;image=img/lib/azure2/networking/Public_IP_Addresses.svg;" parent="1" vertex="1">
                    <mxGeometry x="-60.000884336015105" y="337.98" width="39.44" height="31.55" as="geometry"/>
                </mxCell>
                <mxCell id="60" value="" style="edgeStyle=none;html=1;endArrow=classic;endFill=1;strokeWidth=1;" parent="1" source="41" target="59" edge="1">
                    <mxGeometry relative="1" as="geometry">
                        <mxPoint x="370" y="343" as="sourcePoint"/>
                        <mxPoint x="520" y="342" as="targetPoint"/>
                    </mxGeometry>
                </mxCell>
                <mxCell id="63" value="VPN" style="edgeLabel;html=1;align=center;verticalAlign=middle;resizable=0;points=[];" parent="60" vertex="1" connectable="0">
                    <mxGeometry x="0.1619" relative="1" as="geometry">
                        <mxPoint x="21" as="offset"/>
                    </mxGeometry>
                </mxCell>
                <mxCell id="59" value="pip-vpn" style="image;aspect=fixed;html=1;points=[];align=center;fontSize=12;image=img/lib/azure2/networking/Public_IP_Addresses.svg;" parent="1" vertex="1">
                    <mxGeometry x="429.9991156639849" y="338.71" width="39.44" height="31.55" as="geometry"/>
                </mxCell>
                <mxCell id="72" value="" style="edgeStyle=orthogonalEdgeStyle;html=1;" parent="1" source="71" target="81" edge="1">
                    <mxGeometry relative="1" as="geometry">
                        <Array as="points">
                            <mxPoint x="1410" y="-135"/>
                            <mxPoint x="1410" y="-60"/>
                        </Array>
                    </mxGeometry>
                </mxCell>
                <mxCell id="71" value="dns-database" style="image;sketch=0;aspect=fixed;html=1;points=[];align=center;fontSize=12;image=img/lib/mscae/DNS_Private_Zones.svg;" parent="1" vertex="1">
                    <mxGeometry x="1470" y="-150.00000000000006" width="29.72" height="29.72" as="geometry"/>
                </mxCell>
                <mxCell id="81" value="" style="fillColor=none;strokeColor=#5A6C86;dashed=1;verticalAlign=top;fontStyle=0;fontColor=#5A6C86;whiteSpace=wrap;html=1;container=1;collapsible=0;dashPattern=1 2;strokeWidth=2;" parent="1" vertex="1">
                    <mxGeometry x="1120" y="-70.00000000000001" width="170" height="200" as="geometry">
                        <mxRectangle x="580" y="370" width="120" height="30" as="alternateBounds"/>
                    </mxGeometry>
                </mxCell>
                <mxCell id="91" value="" style="fillColor=none;strokeColor=#5A6C86;dashed=1;verticalAlign=top;fontStyle=0;fontColor=#5A6C86;whiteSpace=wrap;html=1;container=1;collapsible=0;resizable=1;dashPattern=1 2;strokeWidth=2;rounded=1;arcSize=5;" parent="81" vertex="1">
                    <mxGeometry x="10" y="40" width="150" height="150" as="geometry">
                        <mxRectangle x="580" y="370" width="120" height="30" as="alternateBounds"/>
                    </mxGeometry>
                </mxCell>
                <mxCell id="92" value="snet-postgres&lt;div&gt;10.2.0.0/24&lt;/div&gt;" style="image;aspect=fixed;html=1;points=[];align=left;fontSize=12;image=img/lib/azure2/networking/Subnet.svg;labelPosition=right;verticalLabelPosition=middle;verticalAlign=middle;imageBackground=default;" parent="91" vertex="1">
                    <mxGeometry x="10" y="-8.98" width="29.71875" height="17.79375" as="geometry"/>
                </mxCell>
                <mxCell id="127" value="private endpoint" style="image;aspect=fixed;html=1;points=[];align=center;fontSize=12;image=img/lib/azure2/networking/Private_Endpoint.svg;" parent="91" vertex="1">
                    <mxGeometry x="53.17999999999995" y="53.910000000000025" width="43.64" height="40" as="geometry"/>
                </mxCell>
                <mxCell id="82" value="vnet-database&lt;div&gt;10.2.0.0/16&lt;/div&gt;" style="image;aspect=fixed;html=1;points=[];align=left;fontSize=12;image=img/lib/azure2/networking/Virtual_Networks.svg;labelPosition=right;verticalLabelPosition=middle;verticalAlign=middle;labelBackgroundColor=default;textShadow=0;imageBackground=default;" parent="81" vertex="1">
                    <mxGeometry x="10" y="-9.460000000000008" width="33.49" height="20" as="geometry"/>
                </mxCell>
                <mxCell id="116" value="" style="fillColor=none;strokeColor=#5A6C86;dashed=1;verticalAlign=top;fontStyle=0;fontColor=#5A6C86;whiteSpace=wrap;html=1;container=1;collapsible=0;dashPattern=1 2;strokeWidth=2;" parent="1" vertex="1">
                    <mxGeometry x="1120" y="239.99999999999994" width="170" height="200" as="geometry">
                        <mxRectangle x="580" y="370" width="120" height="30" as="alternateBounds"/>
                    </mxGeometry>
                </mxCell>
                <mxCell id="120" value="" style="fillColor=none;strokeColor=#5A6C86;dashed=1;verticalAlign=top;fontStyle=0;fontColor=#5A6C86;whiteSpace=wrap;html=1;container=1;collapsible=0;resizable=1;dashPattern=1 2;strokeWidth=2;rounded=1;arcSize=5;" parent="116" vertex="1">
                    <mxGeometry x="10" y="40" width="150" height="150" as="geometry">
                        <mxRectangle x="580" y="370" width="120" height="30" as="alternateBounds"/>
                    </mxGeometry>
                </mxCell>
                <mxCell id="121" value="snet-functgion&lt;div&gt;10.3.0.0/24&lt;/div&gt;" style="image;aspect=fixed;html=1;points=[];align=left;fontSize=12;image=img/lib/azure2/networking/Subnet.svg;labelPosition=right;verticalLabelPosition=middle;verticalAlign=middle;imageBackground=default;" parent="120" vertex="1">
                    <mxGeometry x="10" y="-8.98" width="31.7" height="18.98" as="geometry"/>
                </mxCell>
                <mxCell id="129" value="private endpoint" style="image;aspect=fixed;html=1;points=[];align=center;fontSize=12;image=img/lib/azure2/networking/Private_Endpoint.svg;" parent="120" vertex="1">
                    <mxGeometry x="53.17999999999995" y="55.000000000000114" width="43.64" height="40" as="geometry"/>
                </mxCell>
                <mxCell id="125" value="vnet-function&lt;div&gt;10.3.0.0/16&lt;/div&gt;" style="image;aspect=fixed;html=1;points=[];align=left;fontSize=12;image=img/lib/azure2/networking/Virtual_Networks.svg;labelPosition=right;verticalLabelPosition=middle;verticalAlign=middle;labelBackgroundColor=default;textShadow=0;imageBackground=default;" parent="116" vertex="1">
                    <mxGeometry x="10" y="-10" width="33.49" height="20" as="geometry"/>
                </mxCell>
                <mxCell id="126" value="function" style="image;aspect=fixed;html=1;points=[];align=center;fontSize=12;image=img/lib/azure2/compute/Function_Apps.svg;" parent="1" vertex="1">
                    <mxGeometry x="1340" y="334.99999999999994" width="45.34" height="40" as="geometry"/>
                </mxCell>
                <mxCell id="93" value="pgflexserver" style="image;aspect=fixed;html=1;points=[];align=center;fontSize=12;image=img/lib/azure2/databases/Azure_Database_PostgreSQL_Server.svg;" parent="1" vertex="1">
                    <mxGeometry x="1348.67" y="26.57999999999997" width="28" height="37.33" as="geometry"/>
                </mxCell>
                <mxCell id="130" value="" style="edgeStyle=none;html=1;" parent="1" source="129" target="126" edge="1">
                    <mxGeometry relative="1" as="geometry"/>
                </mxCell>
                <mxCell id="131" value="" style="edgeStyle=none;html=1;" parent="1" source="127" target="93" edge="1">
                    <mxGeometry relative="1" as="geometry"/>
                </mxCell>
                <mxCell id="132" value="" style="edgeStyle=none;html=1;endArrow=none;endFill=0;strokeWidth=2;dashed=1;dashPattern=1 2;" parent="1" source="143" target="116" edge="1">
                    <mxGeometry relative="1" as="geometry">
                        <mxPoint x="827" y="490" as="sourcePoint"/>
                        <mxPoint x="897" y="490" as="targetPoint"/>
                    </mxGeometry>
                </mxCell>
                <mxCell id="133" value="peering" style="edgeLabel;html=1;align=center;verticalAlign=middle;resizable=0;points=[];" parent="132" vertex="1" connectable="0">
                    <mxGeometry x="0.1857" relative="1" as="geometry">
                        <mxPoint x="-11" as="offset"/>
                    </mxGeometry>
                </mxCell>
                <mxCell id="136" value="" style="edgeStyle=orthogonalEdgeStyle;html=1;" parent="1" source="135" target="116" edge="1">
                    <mxGeometry relative="1" as="geometry">
                        <Array as="points">
                            <mxPoint x="1420" y="-75"/>
                            <mxPoint x="1420" y="250"/>
                        </Array>
                    </mxGeometry>
                </mxCell>
                <mxCell id="135" value="dns-functions" style="image;sketch=0;aspect=fixed;html=1;points=[];align=center;fontSize=12;image=img/lib/mscae/DNS_Private_Zones.svg;" parent="1" vertex="1">
                    <mxGeometry x="1470" y="-90" width="29.72" height="29.72" as="geometry"/>
                </mxCell>
                <mxCell id="143" value="" style="fillColor=none;strokeColor=#5A6C86;dashed=1;verticalAlign=top;fontStyle=0;fontColor=#5A6C86;whiteSpace=wrap;html=1;container=1;collapsible=0;dashPattern=1 2;strokeWidth=2;" parent="1" vertex="1">
                    <mxGeometry x="520" y="-70" width="540" height="200" as="geometry">
                        <mxRectangle x="580" y="370" width="120" height="30" as="alternateBounds"/>
                    </mxGeometry>
                </mxCell>
                <mxCell id="152" value="vnet-frontend&lt;div&gt;10.0.0.0/16&lt;/div&gt;" style="image;aspect=fixed;html=1;points=[];align=left;fontSize=12;image=img/lib/azure2/networking/Virtual_Networks.svg;labelPosition=right;verticalLabelPosition=middle;verticalAlign=middle;labelBackgroundColor=default;textShadow=0;imageBackground=default;" parent="143" vertex="1">
                    <mxGeometry x="10" y="-10" width="33.49" height="20" as="geometry"/>
                </mxCell>
                <mxCell id="153" value="" style="fillColor=none;strokeColor=#5A6C86;dashed=1;verticalAlign=top;fontStyle=0;fontColor=#5A6C86;whiteSpace=wrap;html=1;container=1;collapsible=0;resizable=1;dashPattern=1 2;strokeWidth=2;rounded=1;arcSize=5;" parent="143" vertex="1">
                    <mxGeometry x="380" y="40" width="150" height="150" as="geometry">
                        <mxRectangle x="580" y="370" width="120" height="30" as="alternateBounds"/>
                    </mxGeometry>
                </mxCell>
                <mxCell id="154" value="AzureFirewallSubnet&lt;div&gt;10.0.0.0/24&lt;/div&gt;" style="image;aspect=fixed;html=1;points=[];align=left;fontSize=12;image=img/lib/azure2/networking/Subnet.svg;labelPosition=right;verticalLabelPosition=middle;verticalAlign=middle;imageBackground=default;" parent="153" vertex="1">
                    <mxGeometry x="10" y="-8.98" width="31.7" height="18.98" as="geometry"/>
                </mxCell>
                <mxCell id="155" value="firewall" style="image;sketch=0;aspect=fixed;html=1;points=[];align=center;fontSize=12;image=img/lib/mscae/Azure_Firewall.svg;" parent="153" vertex="1">
                    <mxGeometry x="55" y="55" width="40" height="40" as="geometry"/>
                </mxCell>
                <mxCell id="156" value="" style="edgeStyle=none;html=1;endArrow=none;endFill=0;strokeWidth=2;dashed=1;dashPattern=1 2;" parent="1" source="143" target="42" edge="1">
                    <mxGeometry relative="1" as="geometry">
                        <mxPoint x="933" y="140" as="sourcePoint"/>
                        <mxPoint x="1130" y="273" as="targetPoint"/>
                    </mxGeometry>
                </mxCell>
                <mxCell id="157" value="peering" style="edgeLabel;html=1;align=center;verticalAlign=middle;resizable=0;points=[];" parent="156" vertex="1" connectable="0">
                    <mxGeometry x="0.1857" relative="1" as="geometry">
                        <mxPoint x="-11" as="offset"/>
                    </mxGeometry>
                </mxCell>
                <mxCell id="158" value="" style="fillColor=none;strokeColor=#5A6C86;dashed=1;verticalAlign=top;fontStyle=0;fontColor=#5A6C86;whiteSpace=wrap;html=1;container=1;collapsible=0;dashPattern=1 2;strokeWidth=2;" parent="1" vertex="1">
                    <mxGeometry x="1120" y="560" width="170" height="200" as="geometry">
                        <mxRectangle x="580" y="370" width="120" height="30" as="alternateBounds"/>
                    </mxGeometry>
                </mxCell>
                <mxCell id="162" value="vnet-container&lt;div&gt;10.4.0.0/16&lt;/div&gt;" style="image;aspect=fixed;html=1;points=[];align=left;fontSize=12;image=img/lib/azure2/networking/Virtual_Networks.svg;labelPosition=right;verticalLabelPosition=middle;verticalAlign=middle;labelBackgroundColor=default;textShadow=0;imageBackground=default;" parent="158" vertex="1">
                    <mxGeometry x="10" y="-10" width="33.49" height="20" as="geometry"/>
                </mxCell>
                <mxCell id="170" value="" style="fillColor=none;strokeColor=#5A6C86;dashed=1;verticalAlign=top;fontStyle=0;fontColor=#5A6C86;whiteSpace=wrap;html=1;container=1;collapsible=0;resizable=1;dashPattern=1 2;strokeWidth=2;rounded=1;arcSize=5;" parent="158" vertex="1">
                    <mxGeometry x="10" y="40" width="150" height="150" as="geometry">
                        <mxRectangle x="580" y="370" width="120" height="30" as="alternateBounds"/>
                    </mxGeometry>
                </mxCell>
                <mxCell id="171" value="snet-webap&lt;div&gt;10.4.0.0/24&lt;/div&gt;" style="image;aspect=fixed;html=1;points=[];align=left;fontSize=12;image=img/lib/azure2/networking/Subnet.svg;labelPosition=right;verticalLabelPosition=middle;verticalAlign=middle;imageBackground=default;" parent="170" vertex="1">
                    <mxGeometry x="10" y="-8.98" width="31.7" height="18.98" as="geometry"/>
                </mxCell>
                <mxCell id="172" value="" style="fillColor=none;strokeColor=#5A6C86;dashed=1;verticalAlign=top;fontStyle=0;fontColor=#5A6C86;whiteSpace=wrap;html=1;container=1;collapsible=0;resizable=1;dashPattern=1 2;strokeWidth=2;rounded=1;arcSize=5;" parent="170" vertex="1">
                    <mxGeometry x="10" y="31.090000000000032" width="130" height="110" as="geometry">
                        <mxRectangle x="580" y="370" width="120" height="30" as="alternateBounds"/>
                    </mxGeometry>
                </mxCell>
                <mxCell id="173" value="env-webap" style="image;aspect=fixed;html=1;points=[];align=left;fontSize=12;image=img/lib/azure2/other/Container_App_Environments.svg;labelPosition=right;verticalLabelPosition=middle;verticalAlign=middle;" parent="172" vertex="1">
                    <mxGeometry x="8.52" y="-10" width="20" height="20" as="geometry"/>
                </mxCell>
                <mxCell id="174" value="webap" style="image;aspect=fixed;html=1;points=[];align=center;fontSize=12;image=img/lib/azure2/other/Worker_Container_App.svg;" parent="172" vertex="1">
                    <mxGeometry x="40" y="30.75" width="39" height="37.84" as="geometry"/>
                </mxCell>
                <mxCell id="163" value="dns-container" style="image;sketch=0;aspect=fixed;html=1;points=[];align=center;fontSize=12;image=img/lib/mscae/DNS_Private_Zones.svg;" parent="1" vertex="1">
                    <mxGeometry x="1470" y="-29.720000000000027" width="29.72" height="29.72" as="geometry"/>
                </mxCell>
                <mxCell id="164" value="" style="edgeStyle=orthogonalEdgeStyle;html=1;" parent="1" source="163" target="143" edge="1">
                    <mxGeometry relative="1" as="geometry">
                        <mxPoint x="1430" y="393.92" as="sourcePoint"/>
                        <mxPoint x="1365" y="448.92" as="targetPoint"/>
                        <Array as="points">
                            <mxPoint x="1430" y="-15"/>
                            <mxPoint x="1430" y="200"/>
                            <mxPoint x="840" y="200"/>
                        </Array>
                    </mxGeometry>
                </mxCell>
                <mxCell id="165" value="" style="edgeStyle=none;html=1;endArrow=none;endFill=0;strokeWidth=2;dashed=1;dashPattern=1 2;" parent="1" source="143" target="158" edge="1">
                    <mxGeometry relative="1" as="geometry">
                        <mxPoint x="934" y="140" as="sourcePoint"/>
                        <mxPoint x="1130" y="287" as="targetPoint"/>
                    </mxGeometry>
                </mxCell>
                <mxCell id="166" value="peering" style="edgeLabel;html=1;align=center;verticalAlign=middle;resizable=0;points=[];" parent="165" vertex="1" connectable="0">
                    <mxGeometry x="0.1857" relative="1" as="geometry">
                        <mxPoint x="-11" as="offset"/>
                    </mxGeometry>
                </mxCell>
                <mxCell id="176" value="" style="edgeStyle=none;html=1;" parent="1" source="155" target="175" edge="1">
                    <mxGeometry relative="1" as="geometry"/>
                </mxCell>
                <mxCell id="175" value="Log Analytics&lt;div&gt;Workspaces&lt;/div&gt;" style="image;aspect=fixed;html=1;points=[];align=center;fontSize=12;image=img/lib/azure2/analytics/Log_Analytics_Workspaces.svg;labelBackgroundColor=#FFFFFF;" parent="1" vertex="1">
                    <mxGeometry x="958" y="-154.28" width="34" height="34" as="geometry"/>
                </mxCell>
                <mxCell id="178" value="" style="edgeStyle=orthogonalEdgeStyle;html=1;" parent="1" source="163" target="42" edge="1">
                    <mxGeometry relative="1" as="geometry">
                        <mxPoint x="1470" y="-15" as="sourcePoint"/>
                        <mxPoint x="1290" y="570" as="targetPoint"/>
                        <Array as="points">
                            <mxPoint x="1430" y="-15"/>
                            <mxPoint x="1430" y="200"/>
                            <mxPoint x="840" y="200"/>
                        </Array>
                    </mxGeometry>
                </mxCell>
                <mxCell id="179" value="" style="edgeStyle=orthogonalEdgeStyle;html=1;" parent="1" source="71" target="158" edge="1">
                    <mxGeometry relative="1" as="geometry">
                        <mxPoint x="1480" y="-125" as="sourcePoint"/>
                        <mxPoint x="1300" y="-50" as="targetPoint"/>
                        <Array as="points">
                            <mxPoint x="1410" y="-135"/>
                            <mxPoint x="1410" y="570"/>
                        </Array>
                    </mxGeometry>
                </mxCell>
                <mxCell id="180" value="" style="edgeStyle=orthogonalEdgeStyle;html=1;" parent="1" source="71" target="143" edge="1">
                    <mxGeometry relative="1" as="geometry">
                        <mxPoint x="1480" y="-65" as="sourcePoint"/>
                        <mxPoint x="1300" y="260" as="targetPoint"/>
                        <Array as="points">
                            <mxPoint x="1040" y="-135"/>
                        </Array>
                    </mxGeometry>
                </mxCell>
                <mxCell id="181" value="" style="rounded=1;whiteSpace=wrap;html=1;strokeColor=none;arcSize=5;fillStyle=dashed;fillColor=#000000;" parent="1" vertex="1">
                    <mxGeometry x="900" y="-160" width="150" height="290" as="geometry"/>
                </mxCell>
                <mxCell id="182" value="" style="rounded=1;whiteSpace=wrap;html=1;strokeColor=none;arcSize=5;fillStyle=dashed;fillColor=#000000;" parent="1" vertex="1">
                    <mxGeometry x="1110" y="220" width="330" height="540" as="geometry"/>
                </mxCell>
                <mxCell id="185" value="" style="rounded=1;whiteSpace=wrap;html=1;strokeColor=none;arcSize=5;fillStyle=dashed;fillColor=#000000;" parent="1" vertex="1">
                    <mxGeometry x="1440" y="-99.76" width="90" height="59.76" as="geometry"/>
                </mxCell>
                <mxCell id="190" value="blob storage" style="image;aspect=fixed;html=1;points=[];align=center;fontSize=12;image=img/lib/azure2/storage/Storage_Accounts.svg;" vertex="1" parent="1">
                    <mxGeometry x="754.32" y="660" width="42.5" height="34" as="geometry"/>
                </mxCell>
                <mxCell id="194" value="blob storage" style="image;aspect=fixed;html=1;points=[];align=center;fontSize=12;image=img/lib/azure2/storage/Storage_Accounts.svg;" vertex="1" parent="1">
                    <mxGeometry x="754.32" y="660" width="42.5" height="34" as="geometry"/>
                </mxCell>
                <mxCell id="210" value="" style="fillColor=none;strokeColor=#5A6C86;dashed=1;verticalAlign=top;fontStyle=0;fontColor=#5A6C86;whiteSpace=wrap;html=1;container=1;collapsible=0;resizable=1;dashPattern=1 2;strokeWidth=2;" vertex="1" parent="1">
                    <mxGeometry x="30" y="-70" width="340" height="200" as="geometry">
                        <mxRectangle x="580" y="370" width="120" height="30" as="alternateBounds"/>
                    </mxGeometry>
                </mxCell>
                <mxCell id="217" value="vnet-bastion-1&lt;div&gt;192.168.11.0/24&lt;/div&gt;" style="image;aspect=fixed;html=1;points=[];align=left;fontSize=12;image=img/lib/azure2/networking/Virtual_Networks.svg;labelPosition=right;verticalLabelPosition=middle;verticalAlign=middle;labelBackgroundColor=default;textShadow=0;imageBackground=default;" vertex="1" parent="210">
                    <mxGeometry x="9.99745974754574" y="-9.527219172579992" width="33.63904137100013" height="20.083009773731423" as="geometry"/>
                </mxCell>
                <mxCell id="211" value="" style="fillColor=none;strokeColor=#5A6C86;dashed=1;verticalAlign=top;fontStyle=0;fontColor=#5A6C86;whiteSpace=wrap;html=1;container=1;collapsible=0;dashPattern=1 2;strokeWidth=2;rounded=1;arcSize=5;" vertex="1" parent="210">
                    <mxGeometry x="179.9991156639849" y="40" width="151.73251685612846" height="148.91" as="geometry">
                        <mxRectangle x="580" y="370" width="120" height="30" as="alternateBounds"/>
                    </mxGeometry>
                </mxCell>
                <mxCell id="212" value="snet-vm-1&lt;div&gt;192.168.11.0/25&lt;/div&gt;" style="image;aspect=fixed;html=1;points=[];align=left;fontSize=12;image=img/lib/azure2/networking/Subnet.svg;labelPosition=right;verticalLabelPosition=middle;verticalAlign=middle;imageBackground=default;" vertex="1" parent="211">
                    <mxGeometry x="9.996078479027242" y="-9.87990976645435" width="32.99889861995753" height="19.7598195329087" as="geometry"/>
                </mxCell>
                <mxCell id="213" value="vm-win-1" style="image;sketch=0;aspect=fixed;html=1;points=[];align=center;fontSize=12;image=img/lib/mscae/Virtual_Machine_2.svg;" vertex="1" parent="211">
                    <mxGeometry x="54.13" y="54.46" width="43.48" height="40" as="geometry"/>
                </mxCell>
                <mxCell id="214" value="" style="fillColor=none;strokeColor=#5A6C86;dashed=1;verticalAlign=top;fontStyle=0;fontColor=#5A6C86;whiteSpace=wrap;html=1;container=1;collapsible=0;resizable=1;dashPattern=1 2;strokeWidth=2;rounded=1;arcSize=5;" vertex="1" parent="210">
                    <mxGeometry x="10" y="38.910000000000025" width="150" height="150" as="geometry">
                        <mxRectangle x="580" y="370" width="120" height="30" as="alternateBounds"/>
                    </mxGeometry>
                </mxCell>
                <mxCell id="215" value="bastion-host-1" style="image;aspect=fixed;html=1;points=[];align=center;fontSize=12;image=img/lib/azure2/networking/Bastions.svg;" vertex="1" parent="214">
                    <mxGeometry x="60.94698809182935" y="59.071818181818166" width="28.11497326203208" height="32.95989304812834" as="geometry"/>
                </mxCell>
                <mxCell id="216" value="AzureBastionSubnet&lt;div&gt;192.168.11.128/27&lt;/div&gt;" style="image;aspect=fixed;html=1;points=[];align=left;fontSize=12;image=img/lib/azure2/networking/Subnet.svg;labelPosition=right;verticalLabelPosition=middle;verticalAlign=middle;imageBackground=default;" vertex="1" parent="214">
                    <mxGeometry x="10" y="-8.98" width="31.7" height="18.98" as="geometry"/>
                </mxCell>
                <mxCell id="224" value="" style="edgeStyle=none;html=1;" edge="1" parent="210" source="215" target="213">
                    <mxGeometry relative="1" as="geometry">
                        <mxPoint x="-41" y="108" as="sourcePoint"/>
                        <mxPoint x="77" y="115" as="targetPoint"/>
                    </mxGeometry>
                </mxCell>
                <mxCell id="218" value="" style="edgeStyle=none;html=1;" edge="1" source="219" target="215" parent="1">
                    <mxGeometry relative="1" as="geometry"/>
                </mxCell>
                <mxCell id="219" value="pip-bastion-1" style="image;aspect=fixed;html=1;points=[];align=center;fontSize=12;image=img/lib/azure2/networking/Public_IP_Addresses.svg;" vertex="1" parent="1">
                    <mxGeometry x="-60.000884336015105" y="28.690000000000026" width="39.44" height="31.55" as="geometry"/>
                </mxCell>
                <mxCell id="220" value="" style="edgeStyle=none;html=1;endArrow=none;endFill=0;strokeWidth=2;dashed=1;dashPattern=1 2;" edge="1" parent="1" source="143" target="210">
                    <mxGeometry relative="1" as="geometry">
                        <mxPoint x="775" y="140" as="sourcePoint"/>
                        <mxPoint x="748" y="250" as="targetPoint"/>
                    </mxGeometry>
                </mxCell>
                <mxCell id="221" value="peering" style="edgeLabel;html=1;align=center;verticalAlign=middle;resizable=0;points=[];" vertex="1" connectable="0" parent="220">
                    <mxGeometry x="0.1857" relative="1" as="geometry">
                        <mxPoint x="19" as="offset"/>
                    </mxGeometry>
                </mxCell>
                <mxCell id="222" value="" style="rounded=1;whiteSpace=wrap;html=1;strokeColor=none;arcSize=5;fillStyle=dashed;fillColor=#000000;" vertex="1" parent="1">
                    <mxGeometry x="-90" y="-90" width="460" height="220" as="geometry"/>
                </mxCell>
            </root>
        </mxGraphModel>
    </diagram>
</mxfile>